{"title":"The Walking Dead Complete Season 2 1080P WEB-DL DD5 1 H 264","uid":12013197,"size":24303051605,"categoryP":"video","categoryS":"hd___tv_shows","magnet":"?xt=urn:btih:a1a71f5505dffd8efb9cf8705e66ea10a30cad0d&amp;dn=The+Walking+Dead+Complete+Season+2+1080P+WEB-DL+DD5+1+H+264&amp;tr=udp%3A%2F%2Ftracker.openbittorrent.com%3A80&amp;tr=udp%3A%2F%2Fopen.demonii.com%3A1337&amp;tr=udp%3A%2F%2Ftracker.coppersurfer.tk%3A6969&amp;tr=udp%3A%2F%2Fexodus.desync.com%3A6969","seeders":1,"leechers":0,"uploader":"jmanwf","files":13,"time":1434257333,"description":"Description\n\nThe most anticipated television event of the year returns for a second season. AMC's The Walking Dead is &quot;breathtaking in its small moments&quot; (Wall Street Journal) and &quot;creepy from the first frame&quot; (Variety). The end of civilization was just the beginning for Rick Grimes and the other survivors. As the fight to stay alive intensifies and personal rivalries continue to fuel, the group struggles to hold on to their humanity in a time where slim chances are all that is left.\n\nALL 13 Episodes of Season 2\n\n\nALL IN MP4\n\n\nVideo\nID                                       : 2\nFormat                                   : AVC\nFormat/Info                              : Advanced Video Codec\nFormat profile                           : High@L4\nFormat settings, CABAC                   : Yes\nFormat settings, ReFrames                : 4 frames\nCodec ID                                 : avc1\nCodec ID/Info                            : Advanced Video Coding\nDuration                                 : 1h 2mn\nBit rate                                 : 5 010 Kbps\nWidth                                    : 1 908 pixels\nHeight                                   : 1 072 pixels\nDisplay aspect ratio                     : 16:9\nFrame rate mode                          : Constant\nFrame rate                               : 23.976 fps\nColor space                              : YUV\nChroma subsampling                       : 4:2:0\nBit depth                                : 8 bits\nScan type                                : Progressive\nBits/(Pixel*Frame)                       : 0.102\nStream size                              : 2.20 GiB (91%)\nLanguage                                 : English\nEncoded date                             : UTC 2015-05-30 00:47:21\nTagged date                              : UTC 2015-05-30 00:52:16\nColor range                              : Limited\nColor primaries                          : BT.709\nTransfer characteristics                 : BT.709\nMatrix coefficients                      : BT.709\n\nAudio #1\nID                                       : 1\nFormat                                   : AAC\nFormat/Info                              : Advanced Audio Codec\nFormat profile                           : LC\nCodec ID                                 : 40\nDuration                                 : 1h 2mn\nBit rate mode                            : Variable\nBit rate                                 : 126 Kbps\nMaximum bit rate                         : 193 Kbps\nChannel(s)                               : 2 channels\nChannel positions                        : Front: L R\nSampling rate                            : 48.0 KHz\nCompression mode                         : Lossy\nStream size                              : 56.6 MiB (2%)\nLanguage                                 : English\nEncoded date                             : UTC 2015-05-30 00:47:21\nTagged date                              : UTC 2015-05-30 00:52:16\n\nAudio #2\nID                                       : 3\nFormat                                   : AC-3\nFormat/Info                              : Audio Coding 3\nMode extension                           : CM (complete main)\nFormat settings, Endianness              : Big\nCodec ID                                 : ac-3\nDuration                                 : 1h 2mn\nBit rate mode                            : Constant\nBit rate                                 : 384 Kbps\nChannel(s)                               : 6 channels\nChannel positions                        : Front: L C R, Side: L R, LFE\nSampling rate                            : 48.0 KHz\nBit depth                                : 16 bits\nCompression mode                         : Lossy\nStream size                              : 172 MiB (7%)\nLanguage                                 : English\nEncoded date                             : UTC 2015-05-30 00:47:21\nTagged date                              : UTC 2015-05-30 00:52:16\n\n\n\n\n\nSource: https://itunes.apple.com/us/tv-season/the-walking-dead-season-2/id465754521","torrent":{"xt":"urn:btih:a1a71f5505dffd8efb9cf8705e66ea10a30cad0d","amp;dn":"The+Walking+Dead+Complete+Season+2+1080P+WEB-DL+DD5+1+H+264","amp;tr":["udp%3A%2F%2Ftracker.openbittorrent.com%3A80","udp%3A%2F%2Fopen.demonii.com%3A1337","udp%3A%2F%2Ftracker.coppersurfer.tk%3A6969","udp%3A%2F%2Fexodus.desync.com%3A6969"],"infoHash":"a1a71f5505dffd8efb9cf8705e66ea10a30cad0d","infoHashBuffer":{"type":"Buffer","data":[161,167,31,85,5,223,253,142,251,156,248,112,94,102,234,16,163,12,173,13]},"announce":[],"urlList":[]}}